REM DIRINDEX 1\2\6,1\2\4\7,1\2\4\8,1\2\5\9,1\3\12,1\3\10\13,1\3\10\14,1\3\10\15,1\3\11\16,1\3\11\17
REM DIRNAME cjc048,folder01,folder02,folder03,folder04,folder05,folder06,folder07,folder08,folder09,folder10,folder11,folder12,folder13,folder14,folder15,folder16
TITLE ""
FILE "178.mp3" MP3
  TRACK 01 AUDIO
    TITLE "12:cjc048_11945"
    INDEX 01 00:00:00
  TRACK 02 AUDIO
    TITLE "16:cjc048_11946"
    INDEX 01 00:01:73
  TRACK 03 AUDIO
    TITLE "17:cjc048_11947"
    INDEX 01 00:03:06
  TRACK 04 AUDIO
    TITLE "16:cjc048_11948"
    INDEX 01 00:04:27
  TRACK 05 AUDIO
    TITLE "17:cjc048_11949"
    INDEX 01 00:05:30
  TRACK 06 AUDIO
    TITLE "16:cjc048_11950"
    INDEX 01 00:06:49
  TRACK 07 AUDIO
    TITLE "17:cjc048_11951"
    INDEX 01 00:07:58
  TRACK 08 AUDIO
    TITLE "16:cjc048_11952"
    INDEX 01 00:09:14
  TRACK 09 AUDIO
    TITLE "17:cjc048_11953"
    INDEX 01 00:10:29
  TRACK 10 AUDIO
    TITLE "16:cjc048_11954"
    INDEX 01 00:12:42
  TRACK 11 AUDIO
    TITLE "17:cjc048_11955"
    INDEX 01 00:13:49
  TRACK 12 AUDIO
    TITLE "16:cjc048_11956"
    INDEX 01 00:14:54
  TRACK 13 AUDIO
    TITLE "17:cjc048_11957"
    INDEX 01 00:15:46
  TRACK 14 AUDIO
    TITLE "16:cjc048_11958"
    INDEX 01 00:17:59
  TRACK 15 AUDIO
    TITLE "17:cjc048_11959"
    INDEX 01 00:18:66
  TRACK 16 AUDIO
    TITLE "16:cjc048_11960"
    INDEX 01 00:20:16
  TRACK 17 AUDIO
    TITLE "17:cjc048_11961"
    INDEX 01 00:21:08
  TRACK 18 AUDIO
    TITLE "16:cjc048_11962"
    INDEX 01 00:24:04
  TRACK 19 AUDIO
    TITLE "17:cjc048_11963"
    INDEX 01 00:25:03
  TRACK 20 AUDIO
    TITLE "16:cjc048_11964"
    INDEX 01 00:27:43
  TRACK 21 AUDIO
    TITLE "17:cjc048_11965"
    INDEX 01 00:28:47
  TRACK 22 AUDIO
    TITLE "16:cjc048_11966"
    INDEX 01 00:30:01
  TRACK 23 AUDIO
    TITLE "17:cjc048_11967"
    INDEX 01 00:31:12
  TRACK 24 AUDIO
    TITLE "16:cjc048_11968"
    INDEX 01 00:32:41
  TRACK 25 AUDIO
    TITLE "17:cjc048_11969"
    INDEX 01 00:33:38
  TRACK 26 AUDIO
    TITLE "16:cjc048_11970"
    INDEX 01 00:34:43
  TRACK 27 AUDIO
    TITLE "17:cjc048_11971"
    INDEX 01 00:36:09
  TRACK 28 AUDIO
    TITLE "16:cjc048_11972"
    INDEX 01 00:38:12
  TRACK 29 AUDIO
    TITLE "17:cjc048_11973"
    INDEX 01 00:39:19
  TRACK 30 AUDIO
    TITLE "16:cjc048_11974"
    INDEX 01 00:41:08
  TRACK 31 AUDIO
    TITLE "17:cjc048_11975"
    INDEX 01 00:42:21
  TRACK 32 AUDIO
    TITLE "16:cjc048_11976"
    INDEX 01 00:45:04
  TRACK 33 AUDIO
    TITLE "17:cjc048_11977"
    INDEX 01 00:46:06
  TRACK 34 AUDIO
    TITLE "16:cjc048_11978"
    INDEX 01 00:47:68
  TRACK 35 AUDIO
    TITLE "17:cjc048_11979"
    INDEX 01 00:49:14
  TRACK 36 AUDIO
    TITLE "16:cjc048_11980"
    INDEX 01 00:50:58
  TRACK 37 AUDIO
    TITLE "17:cjc048_11981"
    INDEX 01 00:51:54
  TRACK 38 AUDIO
    TITLE "16:cjc048_11982"
    INDEX 01 00:53:13
  TRACK 39 AUDIO
    TITLE "17:cjc048_11983"
    INDEX 01 00:54:23
  TRACK 40 AUDIO
    TITLE "16:cjc048_11984"
    INDEX 01 00:55:69
  TRACK 41 AUDIO
    TITLE "17:cjc048_11985"
    INDEX 01 00:57:01
  TRACK 42 AUDIO
    TITLE "16:cjc048_11986"
    INDEX 01 00:59:67
  TRACK 43 AUDIO
    TITLE "17:cjc048_11987"
    INDEX 01 01:01:03
  TRACK 44 AUDIO
    TITLE "16:cjc048_11988"
    INDEX 01 01:03:69
  TRACK 45 AUDIO
    TITLE "17:cjc048_11989"
    INDEX 01 01:04:70
  TRACK 46 AUDIO
    TITLE "16:cjc048_11990"
    INDEX 01 01:06:63
  TRACK 47 AUDIO
    TITLE "17:cjc048_11991"
    INDEX 01 01:07:72
  TRACK 48 AUDIO
    TITLE "16:cjc048_11992"
    INDEX 01 01:11:02
  TRACK 49 AUDIO
    TITLE "17:cjc048_11993"
    INDEX 01 01:12:19
  TRACK 50 AUDIO
    TITLE "16:cjc048_11994"
    INDEX 01 01:13:53
  TRACK 51 AUDIO
    TITLE "17:cjc048_11995"
    INDEX 01 01:14:61
  TRACK 52 AUDIO
    TITLE "16:cjc048_11996"
    INDEX 01 01:15:72
  TRACK 53 AUDIO
    TITLE "17:cjc048_11997"
    INDEX 01 01:17:04
  TRACK 54 AUDIO
    TITLE "16:cjc048_11998"
    INDEX 01 01:18:58
  TRACK 55 AUDIO
    TITLE "17:cjc048_11999"
    INDEX 01 01:19:56
  TRACK 56 AUDIO
    TITLE "16:cjc048_12000"
    INDEX 01 01:21:41
  TRACK 57 AUDIO
    TITLE "17:cjc048_12001"
    INDEX 01 01:22:37
  TRACK 58 AUDIO
    TITLE "16:cjc048_12002"
    INDEX 01 01:23:56
  TRACK 59 AUDIO
    TITLE "17:cjc048_12003"
    INDEX 01 01:24:71
  TRACK 60 AUDIO
    TITLE "16:cjc048_12004"
    INDEX 01 01:26:29
  TRACK 61 AUDIO
    TITLE "17:cjc048_12005"
    INDEX 01 01:27:26
  TRACK 62 AUDIO
    TITLE "16:cjc048_12006"
    INDEX 01 01:29:41
  TRACK 63 AUDIO
    TITLE "17:cjc048_12007"
    INDEX 01 01:30:46
  TRACK 64 AUDIO
    TITLE "16:cjc048_12008"
    INDEX 01 01:33:58
  TRACK 65 AUDIO
    TITLE "17:cjc048_12009"
    INDEX 01 01:35:06
  TRACK 66 AUDIO
    TITLE "16:cjc048_12010"
    INDEX 01 01:36:58
  TRACK 67 AUDIO
    TITLE "17:cjc048_12011"
    INDEX 01 01:37:56
  TRACK 68 AUDIO
    TITLE "16:cjc048_12012"
    INDEX 01 01:38:73
  TRACK 69 AUDIO
    TITLE "17:cjc048_12013"
    INDEX 01 01:39:72
  TRACK 70 AUDIO
    TITLE "16:cjc048_12014"
    INDEX 01 01:41:48
  TRACK 71 AUDIO
    TITLE "17:cjc048_12015"
    INDEX 01 01:42:55
  TRACK 72 AUDIO
    TITLE "16:cjc048_12016"
    INDEX 01 01:44:21
  TRACK 73 AUDIO
    TITLE "17:cjc048_12017"
    INDEX 01 01:45:12
  TRACK 74 AUDIO
    TITLE "16:cjc048_12018"
    INDEX 01 01:46:63
  TRACK 75 AUDIO
    TITLE "17:cjc048_12019"
    INDEX 01 01:47:70
  TRACK 76 AUDIO
    TITLE "16:cjc048_12020"
    INDEX 01 01:49:20
  TRACK 77 AUDIO
    TITLE "17:cjc048_12021"
    INDEX 01 01:50:25
  TRACK 78 AUDIO
    TITLE "16:cjc048_12022"
    INDEX 01 01:51:60
  TRACK 79 AUDIO
    TITLE "17:cjc048_12023"
    INDEX 01 01:52:51
  TRACK 80 AUDIO
    TITLE "16:cjc048_12024"
    INDEX 01 01:54:56
  TRACK 81 AUDIO
    TITLE "17:cjc048_12025"
    INDEX 01 01:55:50
  TRACK 82 AUDIO
    TITLE "16:cjc048_12026"
    INDEX 01 01:58:13
  TRACK 83 AUDIO
    TITLE "17:cjc048_12027"
    INDEX 01 01:59:16
  TRACK 84 AUDIO
    TITLE "16:cjc048_12028"
    INDEX 01 02:01:64
  TRACK 85 AUDIO
    TITLE "17:cjc048_12029"
    INDEX 01 02:03:00
  TRACK 86 AUDIO
    TITLE "16:cjc048_12030"
    INDEX 01 02:04:53
  TRACK 87 AUDIO
    TITLE "17:cjc048_12031"
    INDEX 01 02:05:56
  TRACK 88 AUDIO
    TITLE "16:cjc048_12032"
    INDEX 01 02:08:21
  TRACK 89 AUDIO
    TITLE "17:cjc048_12033"
    INDEX 01 02:09:26
  TRACK 90 AUDIO
    TITLE "0:"
    INDEX 01 02:11:04
